<svg width="18" height="16" viewBox="0 0 18 16" fill="none" xmlns="http://www.w3.org/2000/svg">
<path fill-rule="evenodd" clip-rule="evenodd" d="M6.83415 1.50244C7.79665 -0.164225 10.2033 -0.164225 11.165 1.50244L17.2942 12.1258C18.2558 13.7924 17.0525 15.8758 15.1283 15.8758H2.87082C0.946653 15.8758 -0.255847 13.7924 0.705819 12.1258L6.83332 1.50244H6.83415ZM8.99999 5.87494C9.16575 5.87494 9.32472 5.94079 9.44193 6.058C9.55914 6.17521 9.62499 6.33418 9.62499 6.49994V9.62494C9.62499 9.7907 9.55914 9.94967 9.44193 10.0669C9.32472 10.1841 9.16575 10.2499 8.99999 10.2499C8.83423 10.2499 8.67526 10.1841 8.55805 10.0669C8.44083 9.94967 8.37499 9.7907 8.37499 9.62494V6.49994C8.37499 6.33418 8.44083 6.17521 8.55805 6.058C8.67526 5.94079 8.83423 5.87494 8.99999 5.87494ZM8.99999 12.7499C9.16575 12.7499 9.32472 12.6841 9.44193 12.5669C9.55914 12.4497 9.62499 12.2907 9.62499 12.1249C9.62499 11.9592 9.55914 11.8002 9.44193 11.683C9.32472 11.5658 9.16575 11.4999 8.99999 11.4999C8.83423 11.4999 8.67526 11.5658 8.55805 11.683C8.44083 11.8002 8.37499 11.9592 8.37499 12.1249C8.37499 12.2907 8.44083 12.4497 8.55805 12.5669C8.67526 12.6841 8.83423 12.7499 8.99999 12.7499Z" fill="currentColor"/>
</svg>
