<svg width="13" height="13" viewBox="0 0 13 13" fill="none" xmlns="http://www.w3.org/2000/svg">
<path fill-rule="evenodd" clip-rule="evenodd" d="M0.45958 0.459397C0.850105 0.0688728 1.48327 0.0688728 1.87379 0.459397L6.16669 4.75229L10.4596 0.459397C10.8501 0.0688728 11.4833 0.0688728 11.8738 0.459397C12.2643 0.849921 12.2643 1.48309 11.8738 1.87361L7.5809 6.1665L11.8738 10.4594C12.2643 10.8499 12.2643 11.4831 11.8738 11.8736C11.4833 12.2641 10.8501 12.2641 10.4596 11.8736L6.16669 7.58072L1.87379 11.8736C1.48327 12.2641 0.850105 12.2641 0.45958 11.8736C0.0690559 11.4831 0.0690559 10.8499 0.45958 10.4594L4.75247 6.1665L0.45958 1.87361C0.0690559 1.48309 0.0690559 0.849921 0.45958 0.459397Z" fill="currentColor"/>
</svg>
