<svg width="24" height="24" viewBox="0 0 24 24" fill="none" xmlns="http://www.w3.org/2000/svg">
<path d="M13.0305 1.893C12.752 1.6297 12.3833 1.48299 12 1.48299C11.6167 1.48299 11.248 1.6297 10.9695 1.893L3.7035 8.76C3.48102 8.97053 3.30387 9.22427 3.1829 9.50567C3.06194 9.78707 2.9997 10.0902 3 10.3965V18.7515C3.0004 19.348 3.23763 19.9199 3.65954 20.3415C4.08145 20.7632 4.65352 21 5.25 21H7.5C8.09674 21 8.66903 20.7629 9.09099 20.341C9.51295 19.919 9.75 19.3467 9.75 18.75V15C9.75 14.8011 9.82902 14.6103 9.96967 14.4697C10.1103 14.329 10.3011 14.25 10.5 14.25H13.5C13.6989 14.25 13.8897 14.329 14.0303 14.4697C14.171 14.6103 14.25 14.8011 14.25 15V18.75C14.25 19.3467 14.4871 19.919 14.909 20.341C15.331 20.7629 15.9033 21 16.5 21H18.75C19.3467 21 19.919 20.7629 20.341 20.341C20.7629 19.919 21 19.3467 21 18.75V10.395C20.9999 10.0888 20.9373 9.78593 20.8161 9.5048C20.6949 9.22366 20.5176 8.97023 20.295 8.76L13.0305 1.89V1.893Z" fill="currentColor"/>
</svg>
