<svg width="30" height="30" viewBox="0 0 30 30" fill="none" xmlns="http://www.w3.org/2000/svg">
<path d="M16.75 6C16.75 5.0335 15.9665 4.25 15 4.25C14.0335 4.25 13.25 5.0335 13.25 6V13.25L6 13.25C5.0335 13.25 4.25 14.0335 4.25 15C4.25 15.9665 5.0335 16.75 6 16.75H13.25V24C13.25 24.9665 14.0335 25.75 15 25.75C15.9665 25.75 16.75 24.9665 16.75 24V16.75H24C24.9665 16.75 25.75 15.9665 25.75 15C25.75 14.0335 24.9665 13.25 24 13.25H16.75V6Z" fill="currentColor" stroke="currentColor" stroke-width="0.5" stroke-linecap="round" stroke-linejoin="round"/>
</svg>
