<svg width="25" height="25" viewBox="0 0 25 25" fill="none" xmlns="http://www.w3.org/2000/svg">
<path fill-rule="evenodd" clip-rule="evenodd" d="M10 4.99998C8.67392 4.99998 7.40215 5.52677 6.46447 6.46445C5.52678 7.40213 5 8.6739 5 9.99998C5 11.3261 5.52678 12.5978 6.46447 13.5355C7.40215 14.4732 8.67392 15 10 15C11.3261 15 12.5979 14.4732 13.5355 13.5355C14.4732 12.5978 15 11.3261 15 9.99998C15 8.6739 14.4732 7.40213 13.5355 6.46445C12.5979 5.52677 11.3261 4.99998 10 4.99998ZM2.5 9.99998C2.49985 8.81961 2.7783 7.65587 3.31271 6.60341C3.84713 5.55095 4.6224 4.63948 5.57549 3.94314C6.52859 3.2468 7.63258 2.78525 8.79768 2.59602C9.96279 2.4068 11.1561 2.49525 12.2806 2.85417C13.4051 3.21309 14.4289 3.83236 15.269 4.6616C16.109 5.49084 16.7414 6.50665 17.1148 7.6264C17.4882 8.74615 17.5921 9.93822 17.4179 11.1057C17.2437 12.2731 16.7965 13.383 16.1125 14.345L22.1337 20.3662C22.3614 20.602 22.4874 20.9177 22.4846 21.2455C22.4817 21.5732 22.3503 21.8867 22.1185 22.1185C21.8868 22.3503 21.5732 22.4817 21.2455 22.4846C20.9178 22.4874 20.602 22.3614 20.3662 22.1337L14.3462 16.1137C13.2242 16.9116 11.9042 17.3852 10.5308 17.4826C9.1575 17.5801 7.78384 17.2976 6.56037 16.6662C5.33691 16.0348 4.31086 15.0788 3.59465 13.9029C2.87845 12.7271 2.49973 11.3768 2.5 9.99998Z" fill="currentColor"/>
</svg>
