<svg width="24" height="24" viewBox="0 0 24 24" fill="none" xmlns="http://www.w3.org/2000/svg">
<g clip-path="url(#clip0_8_130)">
<path d="M10.75 2.567C11.13 2.34758 11.5612 2.23206 12 2.23206C12.4388 2.23206 12.87 2.34758 13.25 2.567L19.544 6.2C19.924 6.41941 20.2396 6.735 20.459 7.11504C20.6785 7.49507 20.794 7.92617 20.794 8.365V15.633C20.794 16.0718 20.6785 16.5029 20.459 16.883C20.2396 17.263 19.924 17.5786 19.544 17.798L13.25 21.432C12.87 21.6514 12.4388 21.7669 12 21.7669C11.5612 21.7669 11.13 21.6514 10.75 21.432L4.456 17.798C4.07596 17.5786 3.76037 17.263 3.54095 16.883C3.32153 16.5029 3.20601 16.0718 3.206 15.633V8.366C3.20584 7.927 3.32127 7.4957 3.5407 7.11547C3.76013 6.73524 4.07582 6.4195 4.456 6.2L10.75 2.567ZM12 9C11.2044 9 10.4413 9.31607 9.87868 9.87868C9.31607 10.4413 9 11.2044 9 12C9 12.7956 9.31607 13.5587 9.87868 14.1213C10.4413 14.6839 11.2044 15 12 15C12.7957 15 13.5587 14.6839 14.1213 14.1213C14.6839 13.5587 15 12.7956 15 12C15 11.2044 14.6839 10.4413 14.1213 9.87868C13.5587 9.31607 12.7957 9 12 9Z" fill="currentColor"/>
</g>
<defs>
<clipPath id="clip0_8_130">
<rect width="24" height="24" fill="white"/>
</clipPath>
</defs>
</svg>
