<svg width="20" height="20" viewBox="0 0 20 20" fill="none" xmlns="http://www.w3.org/2000/svg">
<path d="M16.6667 1.66666H3.33333C2.41211 1.66666 1.66666 2.41211 1.66666 3.33333V16.6667C1.66666 17.5879 2.41211 18.3333 3.33333 18.3333H16.6667C17.5879 18.3333 18.3333 17.5879 18.3333 16.6667V3.33333C18.3333 2.41211 17.5879 1.66666 16.6667 1.66666ZM9.16666 15C9.16666 15.459 8.79232 15.8333 8.33333 15.8333H4.16666C3.70442 15.8333 3.33333 15.459 3.33333 15V4.16666C3.33333 3.70768 3.70442 3.33333 4.16666 3.33333H8.33333C8.79232 3.33333 9.16666 3.70768 9.16666 4.16666V15ZM16.6667 9.99674C16.6667 10.459 16.2923 10.8333 15.8301 10.8333H11.6699C11.2077 10.8333 10.8333 10.459 10.8333 9.99674V4.16992C10.8333 3.70768 11.2077 3.33333 11.6699 3.33333H15.8301C16.2923 3.33333 16.6667 3.70768 16.6667 4.16992V9.99674Z" fill="currentColor"/>
</svg>
